<svg id="Layer_1" data-name="Layer 1" xmlns="http://www.w3.org/2000/svg" viewBox="0 0 352.06 125.13"><defs><style>.cls-1{fill:#726658;}.cls-2{fill:#f15a29;}.cls-3{fill:#fff;}</style></defs><title>djedi-landscape</title><polygon class="cls-1" points="54.18 0 0 31.28 0 93.85 54.18 125.13 108.36 93.85 108.36 31.28 54.18 0"/><path class="cls-2" d="M169.78,400.19c0,5.05-.31,5.95-5,8.68l-16.17,9.34V399.53c0-5,.31-5.95,5-8.67l16.17-9.34h0Z" transform="translate(-130.6 -334.75)"/><path class="cls-3" d="M199.78,400.19V381.52L221,393.75l12-6.93-45.19-26.09V386.8l-6-3.46V343.41l-12,6.93v17.32L147.6,380.47c-8.22,4.77-11,9.58-11,19.06v25.61l12,6.93,22.18-12.81c8.23-4.78,11-9.59,11-19.07a3,3,0,0,1,6,0c0,9.48,2.78,14.29,11,19.07L221,432.07l12-6.93-28.16-16.26C200.1,406.14,199.78,405.24,199.78,400.19Zm-30,0c0,5.05-.31,5.95-5,8.68l-16.17,9.34V399.53c0-5,.31-5.95,5-8.67l16.17-9.34h0Z" transform="translate(-130.6 -334.75)"/><polygon class="cls-3" points="33.18 95.47 27.18 98.94 27.18 102.61 33.18 106.08 33.18 95.47"/><polygon class="cls-3" points="54.37 83.46 54 83.46 51.18 85.08 51.18 116.47 54.18 118.2 57.18 116.47 57.18 85.08 54.37 83.46"/><polygon class="cls-3" points="45.18 88.55 39.18 92.01 39.18 109.54 45.18 113 45.18 88.55"/><polygon class="cls-3" points="69.18 92.01 63.18 88.55 63.18 113 69.18 109.54 69.18 92.01"/><polygon class="cls-3" points="81.18 98.94 75.18 95.47 75.18 106.08 81.18 102.61 81.18 98.94"/><path class="cls-1" d="M290.25,414.14V376.05h-9.91v12.29c-.29-.11-.6-.21-.91-.3a12.23,12.23,0,0,0-1.84-.47,14.19,14.19,0,0,0-2.36-.19,16.05,16.05,0,0,0-6.9,1.31,11.87,11.87,0,0,0-4.4,3.45,12.81,12.81,0,0,0-2.3,4.82,23.36,23.36,0,0,0-.64,5.39,20.94,20.94,0,0,0,.73,5.61,12.4,12.4,0,0,0,2.43,4.75,12.05,12.05,0,0,0,4.37,3.28,15.59,15.59,0,0,0,6.49,1.23h.71a35.2,35.2,0,0,0,5.59-.4,35.64,35.64,0,0,0,4.7-1,22.93,22.93,0,0,0,4-1.5ZM271.1,399.62a9,9,0,0,1,.82-2.66,5.16,5.16,0,0,1,1.74-2,5.22,5.22,0,0,1,3-.78,10.52,10.52,0,0,1,1.37.2,6.33,6.33,0,0,1,1.23.4c.33.13.66.27,1,.42v14.15a6.47,6.47,0,0,1-1.14.59,11.82,11.82,0,0,1-1.5.45,3.67,3.67,0,0,1-1.68,0,5.89,5.89,0,0,1-2.67-1,5.3,5.3,0,0,1-1.5-1.84,7.72,7.72,0,0,1-.71-2.42,20.78,20.78,0,0,1-.18-2.74A20.54,20.54,0,0,1,271.1,399.62Z" transform="translate(-130.6 -334.75)"/><rect class="cls-1" x="164.15" y="41.25" width="9.91" height="8.81"/><path class="cls-1" d="M294.75,411.14a10.27,10.27,0,0,1-1.67,5.66,13.41,13.41,0,0,1-3.86,3.69l-.57.35,7,6.2.32-.2a24.61,24.61,0,0,0,3.32-2.55A16,16,0,0,0,302,421a16.53,16.53,0,0,0,1.84-4.11,20.35,20.35,0,0,0,.78-5.07V389.31h-9.91Z" transform="translate(-130.6 -334.75)"/><path class="cls-1" d="M359.7,388.34c-.28-.11-.59-.21-.9-.3a12.23,12.23,0,0,0-1.84-.47,14.23,14.23,0,0,0-2.37-.19,16,16,0,0,0-6.89,1.31,11.91,11.91,0,0,0-4.41,3.45A13,13,0,0,0,341,397a23.3,23.3,0,0,0-.64,5.39,21.35,21.35,0,0,0,.72,5.61,12.68,12.68,0,0,0,2.43,4.75,12.22,12.22,0,0,0,4.37,3.28,15.64,15.64,0,0,0,6.5,1.23h.71a35.2,35.2,0,0,0,5.59-.4,36,36,0,0,0,4.7-1,22.62,22.62,0,0,0,4-1.5l.28-.14V376.05H359.7Zm-.05,21a6.83,6.83,0,0,1-1.14.59,11.82,11.82,0,0,1-1.5.45,3.67,3.67,0,0,1-1.68,0,5.8,5.8,0,0,1-2.67-1,5.3,5.3,0,0,1-1.5-1.84,7.72,7.72,0,0,1-.71-2.42,20.78,20.78,0,0,1-.18-2.74,20.54,20.54,0,0,1,.2-2.73,8.86,8.86,0,0,1,.82-2.66,4.9,4.9,0,0,1,4.77-2.76,10.67,10.67,0,0,1,1.38.2,6.56,6.56,0,0,1,1.23.4c.33.13.66.27,1,.42Z" transform="translate(-130.6 -334.75)"/><rect class="cls-1" x="243.51" y="41.25" width="9.91" height="8.81"/><rect class="cls-1" x="243.51" y="54.56" width="9.91" height="27.12"/><path class="cls-1" d="M334.71,408.65c-5.58,1.77-10.73,2.3-13.24,1.24a6.11,6.11,0,0,1-2.07-1.41,5.63,5.63,0,0,1-1.18-1.87,7.42,7.42,0,0,1-.39-1.56h19.49s.66-6.23-1.56-10.4a13.38,13.38,0,0,0-7.27-6.35,15.57,15.57,0,0,0-5.44-.92,17.76,17.76,0,0,0-5.82.95,14.15,14.15,0,0,0-4.87,2.82,13.36,13.36,0,0,0-3.3,4.66,16.1,16.1,0,0,0-1.19,6.38,16.92,16.92,0,0,0,1.11,6.3,13.15,13.15,0,0,0,3.16,4.74,13.83,13.83,0,0,0,5,3,19.76,19.76,0,0,0,6.56,1,36.78,36.78,0,0,0,3.88-.22c1.3-.14,2.48-.31,3.52-.5s1.91-.38,2.58-.56a5.15,5.15,0,0,0,1-.34Zm-15.35-13.2a4.71,4.71,0,0,1,3.69-1.3,5.6,5.6,0,0,1,2.16.38,3.76,3.76,0,0,1,1.44,1,4.32,4.32,0,0,1,.85,1.55,7.81,7.81,0,0,1,.31,1.5h-9.92A7,7,0,0,1,319.36,395.45Z" transform="translate(-130.6 -334.75)"/><path class="cls-2" d="M416.71,405.3a13.6,13.6,0,0,1-1.31,4.12,11.16,11.16,0,0,1-2.5,3.27,11.49,11.49,0,0,1-3.69,2.15,14.09,14.09,0,0,1-4.85.79,13,13,0,0,1-5.4-1.08,12,12,0,0,1-6.49-7,14.57,14.57,0,0,1-.85-4.91,15.73,15.73,0,0,1,.71-4.48,13,13,0,0,1,2.25-4.36,12.34,12.34,0,0,1,4.09-3.32,15.13,15.13,0,0,1,10.7-.63,11.92,11.92,0,0,1,3.44,1.81,8.93,8.93,0,0,1,2.26,2.48,6.44,6.44,0,0,1,.94,2.76l0,.45h1.83v-.51a7.41,7.41,0,0,0-.89-3,10.49,10.49,0,0,0-2.45-3.08,13.48,13.48,0,0,0-4-2.38,15.19,15.19,0,0,0-5.59-.94,16,16,0,0,0-7,1.4,13.86,13.86,0,0,0-4.71,3.63,14.3,14.3,0,0,0-2.64,4.92,17.62,17.62,0,0,0-.83,5.29,15.76,15.76,0,0,0,1.08,5.9,13.54,13.54,0,0,0,7.62,7.73,15.52,15.52,0,0,0,5.89,1.1,16.31,16.31,0,0,0,5.5-.88A13.46,13.46,0,0,0,414.1,414a13,13,0,0,0,2.93-3.78,15.94,15.94,0,0,0,1.53-4.78l.09-.57h-1.87Z" transform="translate(-130.6 -334.75)"/><polygon class="cls-2" points="307.68 79.45 294.76 53.28 292.52 53.28 292.52 81.98 294.38 81.98 294.38 56.68 306.9 81.98 308.47 81.98 320.99 56.68 320.99 81.98 322.85 81.98 322.85 53.28 320.61 53.28 307.68 79.45"/><path class="cls-2" d="M481.72,405.72a6.77,6.77,0,0,0-2.46-2.22,14.58,14.58,0,0,0-3.51-1.29l-4.14-1-3.93-.82a14.54,14.54,0,0,1-3.32-1.05,6.38,6.38,0,0,1-2.27-1.69,4,4,0,0,1-.83-2.67,4.55,4.55,0,0,1,.82-2.79,6.52,6.52,0,0,1,2.17-1.82,10.5,10.5,0,0,1,3-1,19.12,19.12,0,0,1,7.11.1,8.22,8.22,0,0,1,3,1.22,6.27,6.27,0,0,1,2,2.2,7.6,7.6,0,0,1,.84,3.37l0,.47h1.87l0-.52a9.71,9.71,0,0,0-1.07-4.14,7.77,7.77,0,0,0-2.49-2.78,10.53,10.53,0,0,0-3.57-1.5,20.78,20.78,0,0,0-8.23-.11,12,12,0,0,0-3.57,1.22,7.45,7.45,0,0,0-2.67,2.34A6.42,6.42,0,0,0,459.4,395a5.87,5.87,0,0,0,1,3.57,7.11,7.11,0,0,0,2.6,2.17,15.25,15.25,0,0,0,3.49,1.22c1.26.29,2.51.56,3.76.82s2.45.51,3.75.76a14.88,14.88,0,0,1,3.42,1.05,6.65,6.65,0,0,1,2.45,1.81,4.57,4.57,0,0,1,.91,3,4.73,4.73,0,0,1-.81,2.78,6.59,6.59,0,0,1-2.17,1.95,10.63,10.63,0,0,1-3.11,1.13,19.47,19.47,0,0,1-8-.11,9.42,9.42,0,0,1-3.4-1.5,6.8,6.8,0,0,1-2.18-2.62,9.23,9.23,0,0,1-.78-4v-.49H458.5V407a10.4,10.4,0,0,0,.9,4.72,8.41,8.41,0,0,0,2.69,3.24,11.35,11.35,0,0,0,4.05,1.8,21.59,21.59,0,0,0,5,.56,20,20,0,0,0,4.08-.42,12.35,12.35,0,0,0,3.68-1.37,8.18,8.18,0,0,0,2.69-2.46,6.28,6.28,0,0,0,1.05-3.65A6.65,6.65,0,0,0,481.72,405.72Z" transform="translate(-130.6 -334.75)"/></svg>